<svg xmlns="http://www.w3.org/2000/svg" width="820" height="322" viewBox="0 0 820 322">
<rect width="100%" height="100%" fill="#ffffff"/>
<text x="20" y="28" font-family="-apple-system,BlinkMacSystemFont,Segoe UI,Helvetica,Arial,sans-serif" font-size="22" font-weight="700" fill="#000000">modus-operandi</text>
<rect x="20" y="50" width="130" height="36" fill="#c4c4c4" stroke="#9f9f9f"/>
<text x="85.0" y="68.0" font-family="-apple-system,BlinkMacSystemFont,Segoe UI,Helvetica,Arial,sans-serif" font-size="14" font-weight="600" fill="#000000" dominant-baseline="middle" text-anchor="middle">Hue</text>
<rect x="150" y="50" width="130" height="36" fill="#c4c4c4" stroke="#9f9f9f"/>
<text x="215.0" y="68.0" font-family="-apple-system,BlinkMacSystemFont,Segoe UI,Helvetica,Arial,sans-serif" font-size="14" font-weight="600" fill="#000000" dominant-baseline="middle" text-anchor="middle">base</text>
<rect x="280" y="50" width="130" height="36" fill="#c4c4c4" stroke="#9f9f9f"/>
<text x="345.0" y="68.0" font-family="-apple-system,BlinkMacSystemFont,Segoe UI,Helvetica,Arial,sans-serif" font-size="14" font-weight="600" fill="#000000" dominant-baseline="middle" text-anchor="middle">warmer</text>
<rect x="410" y="50" width="130" height="36" fill="#c4c4c4" stroke="#9f9f9f"/>
<text x="475.0" y="68.0" font-family="-apple-system,BlinkMacSystemFont,Segoe UI,Helvetica,Arial,sans-serif" font-size="14" font-weight="600" fill="#000000" dominant-baseline="middle" text-anchor="middle">cooler</text>
<rect x="540" y="50" width="130" height="36" fill="#c4c4c4" stroke="#9f9f9f"/>
<text x="605.0" y="68.0" font-family="-apple-system,BlinkMacSystemFont,Segoe UI,Helvetica,Arial,sans-serif" font-size="14" font-weight="600" fill="#000000" dominant-baseline="middle" text-anchor="middle">faint</text>
<rect x="670" y="50" width="130" height="36" fill="#c4c4c4" stroke="#9f9f9f"/>
<text x="735.0" y="68.0" font-family="-apple-system,BlinkMacSystemFont,Segoe UI,Helvetica,Arial,sans-serif" font-size="14" font-weight="600" fill="#000000" dominant-baseline="middle" text-anchor="middle">intense</text>
<rect x="20" y="86" width="130" height="36" fill="#ffffff" stroke="#9f9f9f"/>
<text x="32" y="104.0" font-family="-apple-system,BlinkMacSystemFont,Segoe UI,Helvetica,Arial,sans-serif" font-size="14" fill="#000000" dominant-baseline="middle">red</text>
<rect x="150" y="86" width="130" height="36" fill="#ffffff" stroke="#9f9f9f"/>
<rect x="160" y="98.0" width="12" height="12" fill="#a60000" stroke="#9f9f9f"/>
<text x="178" y="104.0" font-family="-apple-system,BlinkMacSystemFont,Segoe UI,Helvetica,Arial,sans-serif" font-size="13" fill="#a60000" dominant-baseline="middle">#a60000</text>
<rect x="280" y="86" width="130" height="36" fill="#ffffff" stroke="#9f9f9f"/>
<rect x="290" y="98.0" width="12" height="12" fill="#972500" stroke="#9f9f9f"/>
<text x="308" y="104.0" font-family="-apple-system,BlinkMacSystemFont,Segoe UI,Helvetica,Arial,sans-serif" font-size="13" fill="#972500" dominant-baseline="middle">#972500</text>
<rect x="410" y="86" width="130" height="36" fill="#ffffff" stroke="#9f9f9f"/>
<rect x="420" y="98.0" width="12" height="12" fill="#a0132f" stroke="#9f9f9f"/>
<text x="438" y="104.0" font-family="-apple-system,BlinkMacSystemFont,Segoe UI,Helvetica,Arial,sans-serif" font-size="13" fill="#a0132f" dominant-baseline="middle">#a0132f</text>
<rect x="540" y="86" width="130" height="36" fill="#ffffff" stroke="#9f9f9f"/>
<rect x="550" y="98.0" width="12" height="12" fill="#7f0000" stroke="#9f9f9f"/>
<text x="568" y="104.0" font-family="-apple-system,BlinkMacSystemFont,Segoe UI,Helvetica,Arial,sans-serif" font-size="13" fill="#7f0000" dominant-baseline="middle">#7f0000</text>
<rect x="670" y="86" width="130" height="36" fill="#ffffff" stroke="#9f9f9f"/>
<rect x="680" y="98.0" width="12" height="12" fill="#d00000" stroke="#9f9f9f"/>
<text x="698" y="104.0" font-family="-apple-system,BlinkMacSystemFont,Segoe UI,Helvetica,Arial,sans-serif" font-size="13" fill="#d00000" dominant-baseline="middle">#d00000</text>
<rect x="20" y="122" width="130" height="36" fill="#f2f2f2" stroke="#9f9f9f"/>
<text x="32" y="140.0" font-family="-apple-system,BlinkMacSystemFont,Segoe UI,Helvetica,Arial,sans-serif" font-size="14" fill="#000000" dominant-baseline="middle">green</text>
<rect x="150" y="122" width="130" height="36" fill="#f2f2f2" stroke="#9f9f9f"/>
<rect x="160" y="134.0" width="12" height="12" fill="#006800" stroke="#9f9f9f"/>
<text x="178" y="140.0" font-family="-apple-system,BlinkMacSystemFont,Segoe UI,Helvetica,Arial,sans-serif" font-size="13" fill="#006800" dominant-baseline="middle">#006800</text>
<rect x="280" y="122" width="130" height="36" fill="#f2f2f2" stroke="#9f9f9f"/>
<rect x="290" y="134.0" width="12" height="12" fill="#316500" stroke="#9f9f9f"/>
<text x="308" y="140.0" font-family="-apple-system,BlinkMacSystemFont,Segoe UI,Helvetica,Arial,sans-serif" font-size="13" fill="#316500" dominant-baseline="middle">#316500</text>
<rect x="410" y="122" width="130" height="36" fill="#f2f2f2" stroke="#9f9f9f"/>
<rect x="420" y="134.0" width="12" height="12" fill="#00663f" stroke="#9f9f9f"/>
<text x="438" y="140.0" font-family="-apple-system,BlinkMacSystemFont,Segoe UI,Helvetica,Arial,sans-serif" font-size="13" fill="#00663f" dominant-baseline="middle">#00663f</text>
<rect x="540" y="122" width="130" height="36" fill="#f2f2f2" stroke="#9f9f9f"/>
<rect x="550" y="134.0" width="12" height="12" fill="#2a5045" stroke="#9f9f9f"/>
<text x="568" y="140.0" font-family="-apple-system,BlinkMacSystemFont,Segoe UI,Helvetica,Arial,sans-serif" font-size="13" fill="#2a5045" dominant-baseline="middle">#2a5045</text>
<rect x="670" y="122" width="130" height="36" fill="#f2f2f2" stroke="#9f9f9f"/>
<rect x="680" y="134.0" width="12" height="12" fill="#008900" stroke="#9f9f9f"/>
<text x="698" y="140.0" font-family="-apple-system,BlinkMacSystemFont,Segoe UI,Helvetica,Arial,sans-serif" font-size="13" fill="#008900" dominant-baseline="middle">#008900</text>
<rect x="20" y="158" width="130" height="36" fill="#ffffff" stroke="#9f9f9f"/>
<text x="32" y="176.0" font-family="-apple-system,BlinkMacSystemFont,Segoe UI,Helvetica,Arial,sans-serif" font-size="14" fill="#000000" dominant-baseline="middle">yellow</text>
<rect x="150" y="158" width="130" height="36" fill="#ffffff" stroke="#9f9f9f"/>
<rect x="160" y="170.0" width="12" height="12" fill="#6f5500" stroke="#9f9f9f"/>
<text x="178" y="176.0" font-family="-apple-system,BlinkMacSystemFont,Segoe UI,Helvetica,Arial,sans-serif" font-size="13" fill="#6f5500" dominant-baseline="middle">#6f5500</text>
<rect x="280" y="158" width="130" height="36" fill="#ffffff" stroke="#9f9f9f"/>
<rect x="290" y="170.0" width="12" height="12" fill="#884900" stroke="#9f9f9f"/>
<text x="308" y="176.0" font-family="-apple-system,BlinkMacSystemFont,Segoe UI,Helvetica,Arial,sans-serif" font-size="13" fill="#884900" dominant-baseline="middle">#884900</text>
<rect x="410" y="158" width="130" height="36" fill="#ffffff" stroke="#9f9f9f"/>
<rect x="420" y="170.0" width="12" height="12" fill="#7a4f2f" stroke="#9f9f9f"/>
<text x="438" y="176.0" font-family="-apple-system,BlinkMacSystemFont,Segoe UI,Helvetica,Arial,sans-serif" font-size="13" fill="#7a4f2f" dominant-baseline="middle">#7a4f2f</text>
<rect x="540" y="158" width="130" height="36" fill="#ffffff" stroke="#9f9f9f"/>
<rect x="550" y="170.0" width="12" height="12" fill="#624416" stroke="#9f9f9f"/>
<text x="568" y="176.0" font-family="-apple-system,BlinkMacSystemFont,Segoe UI,Helvetica,Arial,sans-serif" font-size="13" fill="#624416" dominant-baseline="middle">#624416</text>
<rect x="670" y="158" width="130" height="36" fill="#ffffff" stroke="#9f9f9f"/>
<rect x="680" y="170.0" width="12" height="12" fill="#808000" stroke="#9f9f9f"/>
<text x="698" y="176.0" font-family="-apple-system,BlinkMacSystemFont,Segoe UI,Helvetica,Arial,sans-serif" font-size="13" fill="#808000" dominant-baseline="middle">#808000</text>
<rect x="20" y="194" width="130" height="36" fill="#f2f2f2" stroke="#9f9f9f"/>
<text x="32" y="212.0" font-family="-apple-system,BlinkMacSystemFont,Segoe UI,Helvetica,Arial,sans-serif" font-size="14" fill="#000000" dominant-baseline="middle">blue</text>
<rect x="150" y="194" width="130" height="36" fill="#f2f2f2" stroke="#9f9f9f"/>
<rect x="160" y="206.0" width="12" height="12" fill="#0031a9" stroke="#9f9f9f"/>
<text x="178" y="212.0" font-family="-apple-system,BlinkMacSystemFont,Segoe UI,Helvetica,Arial,sans-serif" font-size="13" fill="#0031a9" dominant-baseline="middle">#0031a9</text>
<rect x="280" y="194" width="130" height="36" fill="#f2f2f2" stroke="#9f9f9f"/>
<rect x="290" y="206.0" width="12" height="12" fill="#3548cf" stroke="#9f9f9f"/>
<text x="308" y="212.0" font-family="-apple-system,BlinkMacSystemFont,Segoe UI,Helvetica,Arial,sans-serif" font-size="13" fill="#3548cf" dominant-baseline="middle">#3548cf</text>
<rect x="410" y="194" width="130" height="36" fill="#f2f2f2" stroke="#9f9f9f"/>
<rect x="420" y="206.0" width="12" height="12" fill="#0000b0" stroke="#9f9f9f"/>
<text x="438" y="212.0" font-family="-apple-system,BlinkMacSystemFont,Segoe UI,Helvetica,Arial,sans-serif" font-size="13" fill="#0000b0" dominant-baseline="middle">#0000b0</text>
<rect x="540" y="194" width="130" height="36" fill="#f2f2f2" stroke="#9f9f9f"/>
<rect x="550" y="206.0" width="12" height="12" fill="#003497" stroke="#9f9f9f"/>
<text x="568" y="212.0" font-family="-apple-system,BlinkMacSystemFont,Segoe UI,Helvetica,Arial,sans-serif" font-size="13" fill="#003497" dominant-baseline="middle">#003497</text>
<rect x="670" y="194" width="130" height="36" fill="#f2f2f2" stroke="#9f9f9f"/>
<rect x="680" y="206.0" width="12" height="12" fill="#0000ff" stroke="#9f9f9f"/>
<text x="698" y="212.0" font-family="-apple-system,BlinkMacSystemFont,Segoe UI,Helvetica,Arial,sans-serif" font-size="13" fill="#0000ff" dominant-baseline="middle">#0000ff</text>
<rect x="20" y="230" width="130" height="36" fill="#ffffff" stroke="#9f9f9f"/>
<text x="32" y="248.0" font-family="-apple-system,BlinkMacSystemFont,Segoe UI,Helvetica,Arial,sans-serif" font-size="14" fill="#000000" dominant-baseline="middle">magenta</text>
<rect x="150" y="230" width="130" height="36" fill="#ffffff" stroke="#9f9f9f"/>
<rect x="160" y="242.0" width="12" height="12" fill="#721045" stroke="#9f9f9f"/>
<text x="178" y="248.0" font-family="-apple-system,BlinkMacSystemFont,Segoe UI,Helvetica,Arial,sans-serif" font-size="13" fill="#721045" dominant-baseline="middle">#721045</text>
<rect x="280" y="230" width="130" height="36" fill="#ffffff" stroke="#9f9f9f"/>
<rect x="290" y="242.0" width="12" height="12" fill="#8f0075" stroke="#9f9f9f"/>
<text x="308" y="248.0" font-family="-apple-system,BlinkMacSystemFont,Segoe UI,Helvetica,Arial,sans-serif" font-size="13" fill="#8f0075" dominant-baseline="middle">#8f0075</text>
<rect x="410" y="230" width="130" height="36" fill="#ffffff" stroke="#9f9f9f"/>
<rect x="420" y="242.0" width="12" height="12" fill="#531ab6" stroke="#9f9f9f"/>
<text x="438" y="248.0" font-family="-apple-system,BlinkMacSystemFont,Segoe UI,Helvetica,Arial,sans-serif" font-size="13" fill="#531ab6" dominant-baseline="middle">#531ab6</text>
<rect x="540" y="230" width="130" height="36" fill="#ffffff" stroke="#9f9f9f"/>
<rect x="550" y="242.0" width="12" height="12" fill="#7c318f" stroke="#9f9f9f"/>
<text x="568" y="248.0" font-family="-apple-system,BlinkMacSystemFont,Segoe UI,Helvetica,Arial,sans-serif" font-size="13" fill="#7c318f" dominant-baseline="middle">#7c318f</text>
<rect x="670" y="230" width="130" height="36" fill="#ffffff" stroke="#9f9f9f"/>
<rect x="680" y="242.0" width="12" height="12" fill="#dd22dd" stroke="#9f9f9f"/>
<text x="698" y="248.0" font-family="-apple-system,BlinkMacSystemFont,Segoe UI,Helvetica,Arial,sans-serif" font-size="13" fill="#dd22dd" dominant-baseline="middle">#dd22dd</text>
<rect x="20" y="266" width="130" height="36" fill="#f2f2f2" stroke="#9f9f9f"/>
<text x="32" y="284.0" font-family="-apple-system,BlinkMacSystemFont,Segoe UI,Helvetica,Arial,sans-serif" font-size="14" fill="#000000" dominant-baseline="middle">cyan</text>
<rect x="150" y="266" width="130" height="36" fill="#f2f2f2" stroke="#9f9f9f"/>
<rect x="160" y="278.0" width="12" height="12" fill="#005e8b" stroke="#9f9f9f"/>
<text x="178" y="284.0" font-family="-apple-system,BlinkMacSystemFont,Segoe UI,Helvetica,Arial,sans-serif" font-size="13" fill="#005e8b" dominant-baseline="middle">#005e8b</text>
<rect x="280" y="266" width="130" height="36" fill="#f2f2f2" stroke="#9f9f9f"/>
<rect x="290" y="278.0" width="12" height="12" fill="#3f578f" stroke="#9f9f9f"/>
<text x="308" y="284.0" font-family="-apple-system,BlinkMacSystemFont,Segoe UI,Helvetica,Arial,sans-serif" font-size="13" fill="#3f578f" dominant-baseline="middle">#3f578f</text>
<rect x="410" y="266" width="130" height="36" fill="#f2f2f2" stroke="#9f9f9f"/>
<rect x="420" y="278.0" width="12" height="12" fill="#005f5f" stroke="#9f9f9f"/>
<text x="438" y="284.0" font-family="-apple-system,BlinkMacSystemFont,Segoe UI,Helvetica,Arial,sans-serif" font-size="13" fill="#005f5f" dominant-baseline="middle">#005f5f</text>
<rect x="540" y="266" width="130" height="36" fill="#f2f2f2" stroke="#9f9f9f"/>
<rect x="550" y="278.0" width="12" height="12" fill="#005077" stroke="#9f9f9f"/>
<text x="568" y="284.0" font-family="-apple-system,BlinkMacSystemFont,Segoe UI,Helvetica,Arial,sans-serif" font-size="13" fill="#005077" dominant-baseline="middle">#005077</text>
<rect x="670" y="266" width="130" height="36" fill="#f2f2f2" stroke="#9f9f9f"/>
<rect x="680" y="278.0" width="12" height="12" fill="#008899" stroke="#9f9f9f"/>
<text x="698" y="284.0" font-family="-apple-system,BlinkMacSystemFont,Segoe UI,Helvetica,Arial,sans-serif" font-size="13" fill="#008899" dominant-baseline="middle">#008899</text>
</svg>